<svg width="18px" height="18px" viewBox="0 0 18 18" xmlns="http://www.w3.org/2000/svg">
    <g fill="none" fill-rule="evenodd">
        <polygon id="Shape" points="0 0 18 0 18 18 0 18"></polygon>
        <path d="M11.7428571,1.71428571 C9.65228571,1.71428571 7.84714286,2.90228571 6.94457143,4.63028571 C5.95714286,5.14714286 5.13942857,5.95714286 4.63028571,6.94457143 C2.90228571,7.84714286 1.71428571,9.65228571 1.71428571,11.7428571 C1.71428571,14.7282857 4.12885714,17.1428571 7.11428571,17.1428571 C9.20485714,17.1428571 11.01,15.9548571 11.9125714,14.2268571 C12.9,13.71 13.7177143,12.9 14.2268571,11.9125714 C15.9548571,11.01 17.1428571,9.20485714 17.1428571,7.11428571 C17.1428571,4.12885714 14.7282857,1.71428571 11.7428571,1.71428571 Z M7.11428571,15.6 C4.98514286,15.6 3.25714286,13.872 3.25714286,11.7428571 C3.25714286,10.8788571 3.54257143,10.0765714 4.02857143,9.42857143 C4.02857143,12.414 6.44314286,14.8285714 9.42857143,14.8285714 C8.78057143,15.3145714 7.97828571,15.6 7.11428571,15.6 Z M9.42857143,13.2857143 C7.29942857,13.2857143 5.57142857,11.5577143 5.57142857,9.42857143 C5.57142857,8.56457143 5.85685714,7.76228571 6.34285714,7.11428571 C6.34285714,10.092 8.75742857,12.5065714 11.7428571,12.5142857 C11.0948571,13.0002857 10.2925714,13.2857143 9.42857143,13.2857143 Z M11.7369872,10.9965443 C9.60123686,10.9965443 7.86986908,9.26517657 7.86986908,7.12942618 C7.86986908,4.99367579 9.60123686,3.26230801 11.7369872,3.26230801 C13.8727376,3.26230801 15.6041054,4.99367579 15.6041054,7.12942618 C15.6041054,9.26517657 13.8727376,10.9965443 11.7369872,10.9965443 Z" id="Combined-Shape" fill="#ffffff" fill-rule="nonzero"></path>
        <polygon id="Shape" points="0 0 18 0 18 18 0 18"></polygon>
    </g>
</svg>
